<mxfile host="app.diagrams.net" modified="2023-07-30T14:28:52.622Z" agent="Mozilla/5.0 (Windows NT 10.0; Win64; x64) AppleWebKit/537.36 (KHTML, like Gecko) Chrome/114.0.0.0 Safari/537.36" etag="orFvZE7RTCBffcfFMBHX" version="21.6.1" type="device">
  <diagram name="Page-1" id="CqUbiwOvytCzv99FlpGm">
    <mxGraphModel dx="1432" dy="513" grid="0" gridSize="10" guides="1" tooltips="1" connect="1" arrows="1" fold="1" page="0" pageScale="1" pageWidth="850" pageHeight="1100" math="0" shadow="0">
      <root>
        <mxCell id="0" />
        <mxCell id="1" parent="0" />
        <mxCell id="XYnnE-PNAu_jFsiBg7id-3" value="&lt;font style=&quot;font-size: 14px;&quot;&gt;Mobile Simulated Container&lt;/font&gt;" style="swimlane;whiteSpace=wrap;html=1;" parent="1" vertex="1">
          <mxGeometry x="-17" y="399" width="242.5" height="146" as="geometry" />
        </mxCell>
        <mxCell id="XYnnE-PNAu_jFsiBg7id-4" value="&lt;font style=&quot;font-size: 14px;&quot;&gt;&lt;b&gt;Pre-processing Latency&lt;/b&gt;&lt;/font&gt;" style="text;html=1;align=center;verticalAlign=middle;resizable=0;points=[];autosize=1;strokeColor=none;fillColor=none;" parent="XYnnE-PNAu_jFsiBg7id-3" vertex="1">
          <mxGeometry x="28.5" y="37" width="177" height="29" as="geometry" />
        </mxCell>
        <mxCell id="XYnnE-PNAu_jFsiBg7id-6" value="&lt;font style=&quot;font-size: 14px;&quot;&gt;&lt;b&gt;Post-processing Latency&lt;/b&gt;&lt;/font&gt;" style="text;html=1;align=center;verticalAlign=middle;resizable=0;points=[];autosize=1;strokeColor=none;fillColor=none;" parent="XYnnE-PNAu_jFsiBg7id-3" vertex="1">
          <mxGeometry x="24.5" y="102" width="184" height="29" as="geometry" />
        </mxCell>
        <mxCell id="XYnnE-PNAu_jFsiBg7id-7" value="&lt;span style=&quot;font-size: 14px;&quot;&gt;&lt;b&gt;Model Computational Latency&lt;/b&gt;&lt;/span&gt;" style="text;html=1;align=center;verticalAlign=middle;resizable=0;points=[];autosize=1;strokeColor=none;fillColor=none;" parent="XYnnE-PNAu_jFsiBg7id-3" vertex="1">
          <mxGeometry x="8" y="68" width="217" height="29" as="geometry" />
        </mxCell>
        <mxCell id="XYnnE-PNAu_jFsiBg7id-9" value="&lt;font style=&quot;font-size: 14px;&quot;&gt;Edge Simulated Container&lt;/font&gt;" style="swimlane;whiteSpace=wrap;html=1;" parent="1" vertex="1">
          <mxGeometry x="341" y="399" width="236" height="146" as="geometry" />
        </mxCell>
        <mxCell id="tmbY4-_VR4MLGwRyAzNH-1" value="&lt;font style=&quot;font-size: 14px;&quot;&gt;&lt;b&gt;Pre-processing Latency&lt;/b&gt;&lt;/font&gt;" style="text;html=1;align=center;verticalAlign=middle;resizable=0;points=[];autosize=1;strokeColor=none;fillColor=none;" vertex="1" parent="XYnnE-PNAu_jFsiBg7id-9">
          <mxGeometry x="30" y="35.5" width="177" height="29" as="geometry" />
        </mxCell>
        <mxCell id="tmbY4-_VR4MLGwRyAzNH-2" value="&lt;font style=&quot;font-size: 14px;&quot;&gt;&lt;b&gt;Post-processing Latency&lt;/b&gt;&lt;/font&gt;" style="text;html=1;align=center;verticalAlign=middle;resizable=0;points=[];autosize=1;strokeColor=none;fillColor=none;" vertex="1" parent="XYnnE-PNAu_jFsiBg7id-9">
          <mxGeometry x="26" y="100.5" width="184" height="29" as="geometry" />
        </mxCell>
        <mxCell id="tmbY4-_VR4MLGwRyAzNH-3" value="&lt;span style=&quot;font-size: 14px;&quot;&gt;&lt;b&gt;Model Computational Latency&lt;/b&gt;&lt;/span&gt;" style="text;html=1;align=center;verticalAlign=middle;resizable=0;points=[];autosize=1;strokeColor=none;fillColor=none;" vertex="1" parent="XYnnE-PNAu_jFsiBg7id-9">
          <mxGeometry x="9.5" y="66.5" width="217" height="29" as="geometry" />
        </mxCell>
        <mxCell id="XYnnE-PNAu_jFsiBg7id-14" value="&lt;font style=&quot;font-size: 14px;&quot;&gt;Cloud Simulated Container&lt;/font&gt;" style="swimlane;whiteSpace=wrap;html=1;" parent="1" vertex="1">
          <mxGeometry x="730" y="403" width="236" height="146" as="geometry" />
        </mxCell>
        <mxCell id="tmbY4-_VR4MLGwRyAzNH-4" value="&lt;font style=&quot;font-size: 14px;&quot;&gt;&lt;b&gt;Pre-processing Latency&lt;/b&gt;&lt;/font&gt;" style="text;html=1;align=center;verticalAlign=middle;resizable=0;points=[];autosize=1;strokeColor=none;fillColor=none;" vertex="1" parent="XYnnE-PNAu_jFsiBg7id-14">
          <mxGeometry x="30" y="35" width="177" height="29" as="geometry" />
        </mxCell>
        <mxCell id="tmbY4-_VR4MLGwRyAzNH-5" value="&lt;font style=&quot;font-size: 14px;&quot;&gt;&lt;b&gt;Post-processing Latency&lt;/b&gt;&lt;/font&gt;" style="text;html=1;align=center;verticalAlign=middle;resizable=0;points=[];autosize=1;strokeColor=none;fillColor=none;" vertex="1" parent="XYnnE-PNAu_jFsiBg7id-14">
          <mxGeometry x="26" y="100" width="184" height="29" as="geometry" />
        </mxCell>
        <mxCell id="tmbY4-_VR4MLGwRyAzNH-6" value="&lt;span style=&quot;font-size: 14px;&quot;&gt;&lt;b&gt;Model Computational Latency&lt;/b&gt;&lt;/span&gt;" style="text;html=1;align=center;verticalAlign=middle;resizable=0;points=[];autosize=1;strokeColor=none;fillColor=none;" vertex="1" parent="XYnnE-PNAu_jFsiBg7id-14">
          <mxGeometry x="9.5" y="66" width="217" height="29" as="geometry" />
        </mxCell>
        <mxCell id="XYnnE-PNAu_jFsiBg7id-23" value="" style="curved=1;endArrow=classic;html=1;rounded=0;exitX=0.5;exitY=0;exitDx=0;exitDy=0;entryX=0.5;entryY=0;entryDx=0;entryDy=0;" parent="1" source="XYnnE-PNAu_jFsiBg7id-3" target="XYnnE-PNAu_jFsiBg7id-9" edge="1">
          <mxGeometry width="50" height="50" relative="1" as="geometry">
            <mxPoint x="398" y="544" as="sourcePoint" />
            <mxPoint x="448" y="494" as="targetPoint" />
            <Array as="points">
              <mxPoint x="247" y="284" />
            </Array>
          </mxGeometry>
        </mxCell>
        <mxCell id="XYnnE-PNAu_jFsiBg7id-24" value="" style="curved=1;endArrow=classic;html=1;rounded=0;exitX=0.5;exitY=0;exitDx=0;exitDy=0;entryX=0.5;entryY=0;entryDx=0;entryDy=0;" parent="1" source="XYnnE-PNAu_jFsiBg7id-9" target="XYnnE-PNAu_jFsiBg7id-14" edge="1">
          <mxGeometry width="50" height="50" relative="1" as="geometry">
            <mxPoint x="531" y="371" as="sourcePoint" />
            <mxPoint x="896" y="371" as="targetPoint" />
            <Array as="points">
              <mxPoint x="641" y="270" />
            </Array>
          </mxGeometry>
        </mxCell>
        <mxCell id="XYnnE-PNAu_jFsiBg7id-29" value="" style="curved=1;endArrow=classic;html=1;rounded=0;exitX=0.5;exitY=1;exitDx=0;exitDy=0;entryX=0.5;entryY=1;entryDx=0;entryDy=0;" parent="1" source="XYnnE-PNAu_jFsiBg7id-9" target="XYnnE-PNAu_jFsiBg7id-3" edge="1">
          <mxGeometry width="50" height="50" relative="1" as="geometry">
            <mxPoint x="452" y="680" as="sourcePoint" />
            <mxPoint x="94" y="680" as="targetPoint" />
            <Array as="points">
              <mxPoint x="262" y="668" />
            </Array>
          </mxGeometry>
        </mxCell>
        <mxCell id="XYnnE-PNAu_jFsiBg7id-30" value="" style="curved=1;endArrow=classic;html=1;rounded=0;exitX=0.5;exitY=1;exitDx=0;exitDy=0;entryX=0.5;entryY=1;entryDx=0;entryDy=0;" parent="1" source="XYnnE-PNAu_jFsiBg7id-14" target="XYnnE-PNAu_jFsiBg7id-9" edge="1">
          <mxGeometry width="50" height="50" relative="1" as="geometry">
            <mxPoint x="863" y="653" as="sourcePoint" />
            <mxPoint x="474" y="649" as="targetPoint" />
            <Array as="points">
              <mxPoint x="662" y="677" />
            </Array>
          </mxGeometry>
        </mxCell>
        <mxCell id="XYnnE-PNAu_jFsiBg7id-42" value="&lt;b style=&quot;border-color: var(--border-color); font-size: 14px;&quot;&gt;Transmission Latency&lt;/b&gt;" style="text;html=1;align=center;verticalAlign=middle;resizable=0;points=[];autosize=1;strokeColor=none;fillColor=none;" parent="1" vertex="1">
          <mxGeometry x="575" y="349" width="165" height="29" as="geometry" />
        </mxCell>
        <mxCell id="XYnnE-PNAu_jFsiBg7id-44" value="&lt;b style=&quot;border-color: var(--border-color); font-size: 14px;&quot;&gt;Transmission Latency&lt;/b&gt;" style="text;html=1;align=center;verticalAlign=middle;resizable=0;points=[];autosize=1;strokeColor=none;fillColor=none;" parent="1" vertex="1">
          <mxGeometry x="572" y="573" width="165" height="29" as="geometry" />
        </mxCell>
        <mxCell id="XYnnE-PNAu_jFsiBg7id-45" value="&lt;font style=&quot;font-size: 14px;&quot;&gt;&lt;b&gt;Transmission Latency&lt;/b&gt;&lt;/font&gt;" style="text;html=1;align=center;verticalAlign=middle;resizable=0;points=[];autosize=1;strokeColor=none;fillColor=none;" parent="1" vertex="1">
          <mxGeometry x="193" y="351" width="165" height="29" as="geometry" />
        </mxCell>
        <mxCell id="XYnnE-PNAu_jFsiBg7id-46" value="&lt;b style=&quot;border-color: var(--border-color); font-size: 14px;&quot;&gt;Transmission Latency&lt;/b&gt;" style="text;html=1;align=center;verticalAlign=middle;resizable=0;points=[];autosize=1;strokeColor=none;fillColor=none;" parent="1" vertex="1">
          <mxGeometry x="193" y="566" width="165" height="29" as="geometry" />
        </mxCell>
      </root>
    </mxGraphModel>
  </diagram>
</mxfile>
